{
  "source": "C:\\Users\\Peter\\Desktop\\stuff\\MIUN\\quantitative_research\\video_compression\\videos\\BVI-HD\\BVI-HD_CDVL_videos\\ORIG\\CalmingWater_1920x1080_60fps.mp4",
  "output": "C:\\Users\\Peter\\Desktop\\stuff\\MIUN\\quantitative_research\\video_compression\\compressed_videos\\BVI-HD\\av1\\8\\CalmingWater_1920x1080_60fps_av1.mkv",
  "codec": "av1",
  "ok": "Input #0, mov,mp4,m4a,3gp,3g2,mj2, from 'C:\\Users\\Peter\\Desktop\\stuff\\MIUN\\quantitative_research\\video_compression\\videos\\BVI-HD\\BVI-HD_CDVL_videos\\ORIG\\CalmingWater_1920x1080_60fps.mp4':\n  Metadata:\n    major_brand     : isom\n    minor_version   : 512\n    compatible_brands: isomiso2avc1mp41\n    encoder         : Lavf54.28.101\n  Duration: 00:00:05.00, start: 0.000000, bitrate: 623787 kb/s\n  Stream #0:0[0x1](und): Video: h264 (High 4:4:4 Predictive) (avc1 / 0x31637661), yuv420p(progressive), 1920x1080, 623782 kb/s, 60 fps, 60 tbr, 60 tbn (default)\n    Metadata:\n      handler_name    : VideoHandler\n      vendor_id       : [0][0][0][0]\n[out#0/matroska @ 000002d4ad4090c0] Codec AVOption b:a (set bitrate (in bits/s)) has not been used for any stream. The most likely reason is either wrong type (e.g. a video option with no video streams) or that it is a private option of some decoder which was not actually used for any stream.\nStream mapping:\n  Stream #0:0 -> #0:0 (h264 (native) -> av1 (libsvtav1))\nPress [q] to stop, [?] for help\nSvt[info]: -------------------------------------------\nSvt[info]: SVT [version]:\tSVT-AV1 Encoder Lib v3.1.0-19-g6ecfe8ec\nSvt[info]: SVT [build]  :\tGCC 15.2.0\t 64 bit\nSvt[info]: LIB Build date: Aug 17 2025 11:37:13\nSvt[info]: -------------------------------------------\nSvt[info]: Level of Parallelism: 5\nSvt[info]: Number of PPCS 93\nSvt[info]: [asm level on system : up to avx2]\nSvt[info]: [asm level selected : up to avx2]\nSvt[info]: -------------------------------------------\nSvt[info]: SVT [config]: main profile\ttier (auto)\tlevel (auto)\nSvt[info]: SVT [config]: width / height / fps numerator / fps denominator \t\t: 1920 / 1080 / 60 / 1\nSvt[info]: SVT [config]: bit-depth / color format \t\t\t\t\t: 8 / YUV420\nSvt[info]: SVT [config]: preset / tune / pred struct \t\t\t\t\t: 4 / PSNR / random access\nSvt[info]: SVT [config]: gop size / mini-gop size / key-frame type \t\t\t: 321 / 16 / key frame\nSvt[info]: SVT [config]: BRC mode / target bitrate (kbps)\t\t\t\t: VBR / 8000 \nSvt[info]: SVT [config]: AQ mode / Variance Boost \t\t\t\t\t: 2 / 0\nSvt[info]: SVT [config]: sharpness / luminance-based QP bias \t\t\t\t: 0 / 0\nSvt[info]: SVT [config]: QP scale compress strength \t\t\t\t\t: 0\nSvt[info]: -------------------------------------------\nOutput #0, matroska, to 'C:\\Users\\Peter\\Desktop\\stuff\\MIUN\\quantitative_research\\video_compression\\compressed_videos\\BVI-HD\\av1\\8\\CalmingWater_1920x1080_60fps_av1.mkv':\n  Metadata:\n    major_brand     : isom\n    minor_version   : 512\n    compatible_brands: isomiso2avc1mp41\n    encoder         : Lavf62.3.100\n  Stream #0:0(und): Video: av1 (AV01 / 0x31305641), yuv420p(tv, progressive), 1920x1080, q=2-31, 8000 kb/s, 60 fps, 1k tbn (default)\n    Metadata:\n      encoder         : Lavc62.11.100 libsvtav1\n      handler_name    : VideoHandler\n      vendor_id       : [0][0][0][0]\n    Side data:\n      cpb: bitrate max/min/avg: 0/0/8000000 buffer size: 8000000 vbv_delay: N/A\nframe=    0 fps=0.0 q=0.0 size=       0KiB time=N/A bitrate=N/A speed=N/A elapsed=0:00:01.05    \nframe=    0 fps=0.0 q=0.0 size=       0KiB time=N/A bitrate=N/A speed=N/A elapsed=0:00:01.87    \nframe=    0 fps=0.0 q=0.0 size=       0KiB time=N/A bitrate=N/A speed=N/A elapsed=0:00:02.46    \nframe=    0 fps=0.0 q=0.0 size=       0KiB time=N/A bitrate=N/A speed=N/A elapsed=0:00:03.10    \nframe=    0 fps=0.0 q=0.0 size=       0KiB time=N/A bitrate=N/A speed=N/A elapsed=0:00:03.67    \nframe=    0 fps=0.0 q=0.0 size=       0KiB time=N/A bitrate=N/A speed=N/A elapsed=0:00:04.25    \nframe=    0 fps=0.0 q=0.0 size=       0KiB time=N/A bitrate=N/A speed=N/A elapsed=0:00:04.81    \nframe=    1 fps=0.2 q=37.0 size=       1KiB time=00:00:00.00 bitrate=N/A speed=   0x elapsed=0:00:05.36    \nframe=    1 fps=0.2 q=37.0 size=       1KiB time=00:00:00.00 bitrate=N/A speed=   0x elapsed=0:00:05.91    \nframe=    1 fps=0.2 q=37.0 size=       1KiB time=00:00:00.00 bitrate=N/A speed=   0x elapsed=0:00:06.47    \nframe=    3 fps=0.4 q=44.0 size=       1KiB time=00:00:00.03 bitrate= 170.9kbits/s speed=0.00475x elapsed=0:00:07.01    \nframe=    5 fps=0.7 q=44.0 size=       1KiB time=00:00:00.06 bitrate=  85.4kbits/s speed=0.00882x elapsed=0:00:07.56    \nframe=    7 fps=0.9 q=44.0 size=       1KiB time=00:00:00.10 bitrate=  57.0kbits/s speed=0.0123x elapsed=0:00:08.14    \nframe=    9 fps=1.0 q=42.0 size=       1KiB time=00:00:00.13 bitrate=  42.7kbits/s speed=0.0152x elapsed=0:00:08.78    \nframe=   12 fps=1.3 q=46.0 size=       1KiB time=00:00:00.16 bitrate=  34.2kbits/s speed=0.0178x elapsed=0:00:09.38    \nframe=   13 fps=1.3 q=42.0 size=       1KiB time=00:00:00.20 bitrate=  28.5kbits/s speed=0.0201x elapsed=0:00:09.93    \nframe=   17 fps=1.6 q=39.0 size=       1KiB time=00:00:00.26 bitrate=  21.4kbits/s speed=0.0255x elapsed=0:00:10.46    \nframe=   19 fps=1.7 q=45.0 size=       1KiB time=00:00:00.30 bitrate=  19.0kbits/s speed=0.0271x elapsed=0:00:11.05    \nframe=   22 fps=1.9 q=47.0 size=       1KiB time=00:00:00.35 bitrate=  16.3kbits/s speed=0.0302x elapsed=0:00:11.57    \nframe=   23 fps=1.9 q=45.0 size=       1KiB time=00:00:00.36 bitrate=  15.5kbits/s speed=0.0302x elapsed=0:00:12.13    \nframe=   25 fps=2.0 q=42.0 size=       1KiB time=00:00:00.40 bitrate=  14.2kbits/s speed=0.0313x elapsed=0:00:12.76    \nframe=   28 fps=2.1 q=50.0 size=       1KiB time=00:00:00.45 bitrate=  12.7kbits/s speed=0.0338x elapsed=0:00:13.33    \nframe=   31 fps=2.2 q=46.0 size=       1KiB time=00:00:00.50 bitrate=  11.4kbits/s speed=0.036x elapsed=0:00:13.88    \nframe=   34 fps=2.4 q=50.0 size=       1KiB time=00:00:00.55 bitrate=  10.4kbits/s speed=0.0381x elapsed=0:00:14.43    \nframe=   36 fps=2.4 q=51.0 size=       1KiB time=00:00:00.58 bitrate=   9.8kbits/s speed=0.0388x elapsed=0:00:15.02    \nframe=   38 fps=2.4 q=51.0 size=       1KiB time=00:00:00.61 bitrate=   9.2kbits/s speed=0.0396x elapsed=0:00:15.58    \nframe=   41 fps=2.5 q=43.0 size=       1KiB time=00:00:00.65 bitrate=   8.8kbits/s speed=0.0403x elapsed=0:00:16.12    \nframe=   42 fps=2.5 q=53.0 size=       1KiB time=00:00:00.68 bitrate=   8.3kbits/s speed=0.0409x elapsed=0:00:16.69    \nframe=   46 fps=2.7 q=53.0 size=       1KiB time=00:00:00.75 bitrate=   7.6kbits/s speed=0.0435x elapsed=0:00:17.23    \nframe=   49 fps=2.8 q=40.0 size=       1KiB time=00:00:00.80 bitrate=   7.1kbits/s speed=0.0451x elapsed=0:00:17.75    \nframe=   53 fps=2.9 q=48.0 size=       1KiB time=00:00:00.85 bitrate=   6.7kbits/s speed=0.0465x elapsed=0:00:18.28    \nframe=   55 fps=2.9 q=51.0 size=       1KiB time=00:00:00.90 bitrate=   6.3kbits/s speed=0.0476x elapsed=0:00:18.92    \nframe=   58 fps=3.0 q=55.0 size=       1KiB time=00:00:00.95 bitrate=   6.0kbits/s speed=0.0486x elapsed=0:00:19.54    \nframe=   61 fps=3.0 q=49.0 size=       1KiB time=00:00:01.00 bitrate=   5.7kbits/s speed=0.0497x elapsed=0:00:20.11    \nframe=   65 fps=3.1 q=42.0 size=       1KiB time=00:00:01.06 bitrate=   5.3kbits/s speed=0.0515x elapsed=0:00:20.72    \nframe=   68 fps=3.2 q=55.0 size=       1KiB time=00:00:01.11 bitrate=   5.1kbits/s speed=0.0524x elapsed=0:00:21.29    \nframe=   71 fps=3.2 q=52.0 size=       1KiB time=00:00:01.16 bitrate=   4.9kbits/s speed=0.0534x elapsed=0:00:21.84    \nframe=   74 fps=3.3 q=55.0 size=       1KiB time=00:00:01.20 bitrate=   4.7kbits/s speed=0.0536x elapsed=0:00:22.40    \nframe=   77 fps=3.3 q=50.0 size=       1KiB time=00:00:01.26 bitrate=   4.5kbits/s speed=0.055x elapsed=0:00:23.02    \nframe=   80 fps=3.4 q=55.0 size=       1KiB time=00:00:01.31 bitrate=   4.3kbits/s speed=0.0559x elapsed=0:00:23.54    \nframe=   83 fps=3.4 q=52.0 size=       1KiB time=00:00:01.35 bitrate=   4.2kbits/s speed=0.0561x elapsed=0:00:24.08    \nframe=   85 fps=3.5 q=50.0 size=       1KiB time=00:00:01.40 bitrate=   4.1kbits/s speed=0.0568x elapsed=0:00:24.62    \nframe=   87 fps=3.5 q=52.0 size=       1KiB time=00:00:01.43 bitrate=   4.0kbits/s speed=0.057x elapsed=0:00:25.15    \nframe=   90 fps=3.5 q=55.0 size=       1KiB time=00:00:01.46 bitrate=   3.9kbits/s speed=0.057x elapsed=0:00:25.75    \nframe=   92 fps=3.5 q=55.0 size=       1KiB time=00:00:01.51 bitrate=   3.8kbits/s speed=0.0577x elapsed=0:00:26.28    \nframe=   96 fps=3.6 q=55.0 size=       1KiB time=00:00:01.58 bitrate=   3.6kbits/s speed=0.059x elapsed=0:00:26.81    \nframe=   99 fps=3.6 q=52.0 size=       1KiB time=00:00:01.63 bitrate=   3.5kbits/s speed=0.0597x elapsed=0:00:27.34    \nframe=  102 fps=3.7 q=55.0 size=       1KiB time=00:00:01.68 bitrate=   3.4kbits/s speed=0.0603x elapsed=0:00:27.90    \nframe=  105 fps=3.7 q=49.0 size=       1KiB time=00:00:01.71 bitrate=   3.3kbits/s speed=0.0604x elapsed=0:00:28.43    \nframe=  107 fps=3.7 q=52.0 size=       1KiB time=00:00:01.76 bitrate=   3.2kbits/s speed=0.0609x elapsed=0:00:29.03    \nframe=  111 fps=3.8 q=51.0 size=       1KiB time=00:00:01.83 bitrate=   3.1kbits/s speed=0.0619x elapsed=0:00:29.59    \nframe=  115 fps=3.8 q=51.0 size=       1KiB time=00:00:01.90 bitrate=   3.0kbits/s speed=0.0631x elapsed=0:00:30.10    \nframe=  118 fps=3.9 q=54.0 size=       1KiB time=00:00:01.95 bitrate=   2.9kbits/s speed=0.0636x elapsed=0:00:30.64    \nframe=  120 fps=3.8 q=54.0 size=       1KiB time=00:00:01.96 bitrate=   2.9kbits/s speed=0.063x elapsed=0:00:31.23    \nframe=  123 fps=3.9 q=51.0 size=       1KiB time=00:00:02.03 bitrate=   2.8kbits/s speed=0.0638x elapsed=0:00:31.84    \nframe=  126 fps=3.9 q=54.0 size=       1KiB time=00:00:02.08 bitrate=   2.7kbits/s speed=0.0643x elapsed=0:00:32.42    \nframe=  130 fps=3.9 q=54.0 size=       1KiB time=00:00:02.15 bitrate=   2.6kbits/s speed=0.0652x elapsed=0:00:32.97    \nframe=  134 fps=4.0 q=54.0 size=       1KiB time=00:00:02.21 bitrate=   2.6kbits/s speed=0.0661x elapsed=0:00:33.52    \nframe=  135 fps=4.0 q=51.0 size=       1KiB time=00:00:02.23 bitrate=   2.6kbits/s speed=0.0655x elapsed=0:00:34.08    \nframe=  139 fps=4.0 q=51.0 size=       1KiB time=00:00:02.28 bitrate=   2.5kbits/s speed=0.0659x elapsed=0:00:34.63    \nframe=  142 fps=4.0 q=53.0 size=       1KiB time=00:00:02.35 bitrate=   2.4kbits/s speed=0.0667x elapsed=0:00:35.24    \nframe=  146 fps=4.1 q=53.0 size=       1KiB time=00:00:02.41 bitrate=   2.4kbits/s speed=0.0675x elapsed=0:00:35.79    \nframe=  148 fps=4.1 q=53.0 size=       1KiB time=00:00:02.45 bitrate=   2.3kbits/s speed=0.0674x elapsed=0:00:36.36    \nframe=  151 fps=4.1 q=50.0 size=       1KiB time=00:00:02.50 bitrate=   2.3kbits/s speed=0.0677x elapsed=0:00:36.90    \nframe=  154 fps=4.1 q=53.0 size=       1KiB time=00:00:02.55 bitrate=   2.2kbits/s speed=0.068x elapsed=0:00:37.50    \nframe=  157 fps=4.1 q=48.0 size=       1KiB time=00:00:02.60 bitrate=   2.2kbits/s speed=0.0683x elapsed=0:00:38.09    \nframe=  161 fps=4.2 q=42.0 size=       1KiB time=00:00:02.66 bitrate=   2.1kbits/s speed=0.0689x elapsed=0:00:38.68    \nframe=  164 fps=4.2 q=53.0 size=       1KiB time=00:00:02.71 bitrate=   2.1kbits/s speed=0.0692x elapsed=0:00:39.26    \nframe=  166 fps=4.2 q=53.0 size=       1KiB time=00:00:02.75 bitrate=   2.1kbits/s speed=0.0691x elapsed=0:00:39.82    \nframe=  168 fps=4.2 q=53.0 size=       1KiB time=00:00:02.78 bitrate=   2.0kbits/s speed=0.069x elapsed=0:00:40.35    \nframe=  171 fps=4.2 q=50.0 size=       1KiB time=00:00:02.81 bitrate=   2.0kbits/s speed=0.0689x elapsed=0:00:40.88    \nframe=  174 fps=4.2 q=53.0 size=       1KiB time=00:00:02.88 bitrate=   2.0kbits/s speed=0.0696x elapsed=0:00:41.42    \nframe=  177 fps=4.2 q=40.0 size=       1KiB time=00:00:02.93 bitrate=   1.9kbits/s speed=0.0699x elapsed=0:00:41.95    \nframe=  180 fps=4.2 q=53.0 size=       1KiB time=00:00:02.98 bitrate=   1.9kbits/s speed=0.0703x elapsed=0:00:42.45    \nframe=  183 fps=4.3 q=50.0 size=       1KiB time=00:00:03.03 bitrate=   1.9kbits/s speed=0.0705x elapsed=0:00:42.99    \nframe=  186 fps=4.3 q=53.0 size=       1KiB time=00:00:03.08 bitrate=   1.8kbits/s speed=0.0707x elapsed=0:00:43.59    \nframe=  188 fps=4.3 q=52.0 size=       1KiB time=00:00:03.11 bitrate=   1.8kbits/s speed=0.0705x elapsed=0:00:44.19    \nframe=  192 fps=4.3 q=52.0 size=       1KiB time=00:00:03.18 bitrate=   1.8kbits/s speed=0.0711x elapsed=0:00:44.77    \nframe=  195 fps=4.3 q=49.0 size=       1KiB time=00:00:03.23 bitrate=   1.8kbits/s speed=0.0714x elapsed=0:00:45.30    \nframe=  198 fps=4.3 q=52.0 size=       1KiB time=00:00:03.28 bitrate=   1.7kbits/s speed=0.0716x elapsed=0:00:45.87    \nframe=  199 fps=4.3 q=49.0 size=       1KiB time=00:00:03.30 bitrate=   1.7kbits/s speed=0.0711x elapsed=0:00:46.42    \nframe=  205 fps=4.4 q=47.0 size=       1KiB time=00:00:03.40 bitrate=   1.7kbits/s speed=0.0723x elapsed=0:00:47.00    \nframe=  207 fps=4.3 q=49.0 size=       1KiB time=00:00:03.43 bitrate=   1.7kbits/s speed=0.0721x elapsed=0:00:47.59    \nframe=  211 fps=4.4 q=49.0 size=       1KiB time=00:00:03.50 bitrate=   1.6kbits/s speed=0.0727x elapsed=0:00:48.16    \nframe=  215 fps=4.4 q=49.0 size=       1KiB time=00:00:03.56 bitrate=   1.6kbits/s speed=0.0732x elapsed=0:00:48.69    \nframe=  217 fps=4.4 q=46.0 size=       1KiB time=00:00:03.60 bitrate=   1.6kbits/s speed=0.0731x elapsed=0:00:49.23    \nframe=  219 fps=4.4 q=49.0 size=       1KiB time=00:00:03.63 bitrate=   1.6kbits/s speed=0.073x elapsed=0:00:49.79    \nframe=  223 fps=4.4 q=49.0 size=       1KiB time=00:00:03.70 bitrate=   1.5kbits/s speed=0.0735x elapsed=0:00:50.36    \nframe=  225 fps=4.4 q=39.0 size=       1KiB time=00:00:03.73 bitrate=   1.5kbits/s speed=0.0734x elapsed=0:00:50.89    \nframe=  231 fps=4.5 q=49.0 size=       1KiB time=00:00:03.83 bitrate=   1.5kbits/s speed=0.0746x elapsed=0:00:51.39    \nframe=  233 fps=4.5 q=46.0 size=       1KiB time=00:00:03.86 bitrate=   1.5kbits/s speed=0.0745x elapsed=0:00:51.92    \nframe=  237 fps=4.5 q=46.0 size=       1KiB time=00:00:03.93 bitrate=   1.4kbits/s speed=0.0749x elapsed=0:00:52.49    \nframe=  239 fps=4.5 q=48.0 size=       1KiB time=00:00:03.96 bitrate=   1.4kbits/s speed=0.0748x elapsed=0:00:53.04    \nframe=  241 fps=4.5 q=39.0 size=       1KiB time=00:00:04.00 bitrate=   1.4kbits/s speed=0.0747x elapsed=0:00:53.57    \nframe=  245 fps=4.5 q=47.0 size=       1KiB time=00:00:04.06 bitrate=   1.4kbits/s speed=0.0751x elapsed=0:00:54.11    \nframe=  249 fps=4.6 q=46.0 size=       1KiB time=00:00:04.13 bitrate=   1.4kbits/s speed=0.0756x elapsed=0:00:54.66    \nframe=  253 fps=4.6 q=46.0 size=       1KiB time=00:00:04.20 bitrate=   1.4kbits/s speed=0.076x elapsed=0:00:55.25    \nframe=  255 fps=4.6 q=48.0 size=       1KiB time=00:00:04.23 bitrate=   1.3kbits/s speed=0.0758x elapsed=0:00:55.82    \nframe=  259 fps=4.6 q=49.0 size=       1KiB time=00:00:04.30 bitrate=   1.3kbits/s speed=0.0762x elapsed=0:00:56.39    \nframe=  261 fps=4.6 q=47.0 size=       1KiB time=00:00:04.33 bitrate=   1.3kbits/s speed=0.0761x elapsed=0:00:56.93    \nframe=  265 fps=4.6 q=45.0 size=       1KiB time=00:00:04.40 bitrate=   1.3kbits/s speed=0.0765x elapsed=0:00:57.50    \nframe=  267 fps=4.6 q=48.0 size=       1KiB time=00:00:04.40 bitrate=   1.3kbits/s speed=0.0757x elapsed=0:00:58.10    \nframe=  269 fps=4.6 q=46.0 size=       1KiB time=00:00:04.46 bitrate=   1.3kbits/s speed=0.0761x elapsed=0:00:58.72    \nframe=  273 fps=4.6 q=38.0 size=       1KiB time=00:00:04.53 bitrate=   1.3kbits/s speed=0.0765x elapsed=0:00:59.26    \nframe=  275 fps=4.6 q=48.0 size=       1KiB time=00:00:04.56 bitrate=   1.2kbits/s speed=0.0763x elapsed=0:00:59.82    \nframe=  277 fps=4.6 q=49.0 size=       1KiB time=00:00:04.60 bitrate=   1.2kbits/s speed=0.0762x elapsed=0:01:00.36    \nframe=  281 fps=4.6 q=45.0 size=       1KiB time=00:00:04.66 bitrate=   1.2kbits/s speed=0.0766x elapsed=0:01:00.88    \nframe=  281 fps=4.6 q=45.0 size=       1KiB time=00:00:04.66 bitrate=   1.2kbits/s speed=0.076x elapsed=0:01:01.40    \nframe=  287 fps=4.6 q=48.0 size=       1KiB time=00:00:04.76 bitrate=   1.2kbits/s speed=0.0769x elapsed=0:01:01.96    \n[out#0/matroska @ 000002d4ad4090c0] video:5204KiB audio:0KiB subtitle:0KiB other streams:0KiB global headers:0KiB muxing overhead: 0.041487%\nframe=  300 fps=4.8 q=51.0 Lsize=    5207KiB time=00:00:04.98 bitrate=8559.0kbits/s speed=0.0799x elapsed=0:01:02.35    \n",
  "seconds": 63.04722499847412,
  "probe_out": {}
}